<svg id="network" xmlns="http://www.w3.org/2000/svg" width="97.524" height="90.595" viewBox="0 0 97.524 90.595">
  <path id="Path_76" data-name="Path 76" d="M91.76,202.449H92.1a4.173,4.173,0,0,1,4.259,4.08v3.044a4.173,4.173,0,0,1-4.26,4.081h-.337a4.173,4.173,0,0,1-4.259-4.081V206.53a4.173,4.173,0,0,1,4.26-4.081Z" transform="translate(-73.85 -167.842)" fill="#000733"/>
  <path id="Path_77" data-name="Path 77" d="M377.24,150.727V145.75A5,5,0,0,0,373,140.9a6.956,6.956,0,0,1-9.916-.028,5.034,5.034,0,0,0-4.428,4.876v4.977a18.724,18.724,0,0,0,18.584,0Z" transform="translate(-288.503 -118.559)" fill="#000733"/>
  <path id="Path_78" data-name="Path 78" d="M78.5,281.057a6.956,6.956,0,0,1-9.916-.028A5.034,5.034,0,0,0,64.16,285.9v4.977a18.723,18.723,0,0,0,18.584,0V285.9A5,5,0,0,0,78.5,281.057Z" transform="translate(-55.373 -230.735)" fill="#000733"/>
  <path id="Path_79" data-name="Path 79" d="M334.57,29.089a18.056,18.056,0,0,0-16.948,11.287,16.839,16.839,0,0,0,5.155,19.147V56.28a7.521,7.521,0,0,1,7.448-7.318,1.277,1.277,0,0,1,1.037.485,4.367,4.367,0,0,0,6.708.157,1.417,1.417,0,0,1,1.236-.63,7.465,7.465,0,0,1,7.157,7.305v3.242a16.839,16.839,0,0,0,5.155-19.147A18.057,18.057,0,0,0,334.57,29.089ZM341.5,42.841a6.63,6.63,0,0,1-6.76,6.476H334.4a6.63,6.63,0,0,1-6.76-6.476V39.8a6.631,6.631,0,0,1,6.759-6.477h.337A6.631,6.631,0,0,1,341.5,39.8Z" transform="translate(-255.125 -29.089)" fill="#000733"/>
  <path id="Path_80" data-name="Path 80" d="M40.072,169.248a18.056,18.056,0,0,0-16.948,11.286,16.838,16.838,0,0,0,5.156,19.147v-3.243a7.521,7.521,0,0,1,7.447-7.317,1.271,1.271,0,0,1,1.037.486,4.367,4.367,0,0,0,6.707.157,1.426,1.426,0,0,1,1.235-.63,7.465,7.465,0,0,1,7.159,7.3v3.244a16.838,16.838,0,0,0,5.155-19.147,18.056,18.056,0,0,0-16.948-11.286ZM47,183a6.63,6.63,0,0,1-6.76,6.477H39.9A6.631,6.631,0,0,1,33.143,183v-3.043a6.631,6.631,0,0,1,6.76-6.476h.337A6.63,6.63,0,0,1,47,179.957Z" transform="translate(-21.993 -141.268)" fill="#000733"/>
  <path id="Path_81" data-name="Path 81" d="M334.57,309.406a18.057,18.057,0,0,0-16.948,11.287,16.839,16.839,0,0,0,5.155,19.147V336.6a7.521,7.521,0,0,1,7.448-7.317,1.277,1.277,0,0,1,1.037.486,4.367,4.367,0,0,0,6.708.157,1.414,1.414,0,0,1,1.236-.63,7.465,7.465,0,0,1,7.158,7.3v3.243a16.839,16.839,0,0,0,5.155-19.147,18.057,18.057,0,0,0-16.948-11.287Zm6.929,13.752a6.63,6.63,0,0,1-6.76,6.476H334.4a6.63,6.63,0,0,1-6.76-6.476v-3.043a6.631,6.631,0,0,1,6.76-6.477h.337a6.631,6.631,0,0,1,6.759,6.477Z" transform="translate(-255.125 -253.447)" fill="#000733"/>
  <path id="Path_82" data-name="Path 82" d="M226.5,159.823V143.217c-10.087-.6-18.232-8.121-19.23-17.756l-25.716,12.755a19.054,19.054,0,0,1,.834,25.68l24.876,13.758C208.228,167.987,216.385,160.426,226.5,159.823Z" transform="translate(-148.307 -106.223)" fill="#000733"/>
  <path id="Path_83" data-name="Path 83" d="M386.259,62.29h.337a4.173,4.173,0,0,1,4.26,4.081v3.043a4.173,4.173,0,0,1-4.26,4.081h-.337A4.173,4.173,0,0,1,382,69.414V66.371A4.173,4.173,0,0,1,386.259,62.29Z" transform="translate(-306.983 -55.662)" fill="#000733"/>
  <path id="Path_84" data-name="Path 84" d="M373,421.216a6.956,6.956,0,0,1-9.916-.027,5.034,5.034,0,0,0-4.428,4.876v4.977a18.724,18.724,0,0,0,18.584,0v-4.977A5,5,0,0,0,373,421.216Z" transform="translate(-288.503 -342.914)" fill="#000733"/>
  <path id="Path_85" data-name="Path 85" d="M386.259,342.607h.337a4.173,4.173,0,0,1,4.26,4.082v3.042a4.173,4.173,0,0,1-4.26,4.081h-.337a4.173,4.173,0,0,1-4.259-4.08v-3.044a4.173,4.173,0,0,1,4.259-4.081Z" transform="translate(-306.983 -280.02)" fill="#000733"/>
</svg>
