<svg id="speaker-filled-audio-tool" xmlns="http://www.w3.org/2000/svg" width="95.784" height="69.451" viewBox="0 0 95.784 69.451">
  <path id="Path_97" data-name="Path 97" d="M47.921,71.542a3.959,3.959,0,0,1-2.5,3.592,4.67,4.67,0,0,1-1.85.378,4.607,4.607,0,0,1-2.776-.914L17.015,56.612H4.35A4.171,4.171,0,0,1,0,52.643V36.826a4.174,4.174,0,0,1,4.35-3.971H17.016L40.8,14.869a4.675,4.675,0,0,1,4.626-.535,3.961,3.961,0,0,1,2.5,3.592V71.542Zm16.716-6.2c-.106.007-.208.01-.313.01a4.565,4.565,0,0,1-3.075-1.162l-.582-.533a3.714,3.714,0,0,1-.42-5.172,21.515,21.515,0,0,0-.669-28.29,3.717,3.717,0,0,1,.3-5.309l.581-.531a4.636,4.636,0,0,1,6.445.3,29.637,29.637,0,0,1,.907,39.109A4.476,4.476,0,0,1,64.637,65.338ZM82.621,77.607a4.519,4.519,0,0,1-3.142,1.4c-.06,0-.12,0-.182,0a4.566,4.566,0,0,1-3.076-1.162l-.571-.522a3.721,3.721,0,0,1-.253-5.363,40.226,40.226,0,0,0,10.88-27.233A40.22,40.22,0,0,0,74.628,16.69a3.723,3.723,0,0,1,.175-5.434l.57-.522A4.454,4.454,0,0,1,78.58,9.567,4.532,4.532,0,0,1,81.705,10.9,48.451,48.451,0,0,1,95.784,44.736,48.426,48.426,0,0,1,82.621,77.607Z" transform="translate(0 -9.565)" fill="#000733"/>
</svg>
