<svg id="box" xmlns="http://www.w3.org/2000/svg" width="41.824" height="43.672" viewBox="0 0 41.824 43.672">
  <g id="Group_77" data-name="Group 77">
    <path id="Path_137" data-name="Path 137" d="M52.028,10.8V10.71c-.046-.092-.046-.185-.092-.277v-.046a1.007,1.007,0,0,0-.185-.231L51.7,10.11c-.046-.046-.138-.092-.185-.138l-.046-.046h-.046l-.046-.046L31.762.138a1.47,1.47,0,0,0-1.246,0l-6.6,3.278,19.712,10.11.046.046c.046,0,.046.046.092.046.046.046.046.092.092.138V24.605a.485.485,0,0,1-.231.415L39.656,27.1a.467.467,0,0,1-.646-.185.346.346,0,0,1-.046-.231V16.2L19.021,5.909l-.046-.046-7.986,3.97-.046.046H10.9l-.046.046c-.046.046-.138.092-.185.138l-.046.046c-.092.092-.138.185-.231.277v.046a.656.656,0,0,0-.092.277V10.8c0,.092-.046.138-.046.231V32.591a1.361,1.361,0,0,0,.785,1.246L30.47,43.532a1.269,1.269,0,0,0,.923.092l.092-.046c.092,0,.138-.046.231-.092l19.573-9.694a1.39,1.39,0,0,0,.785-1.246V11.033A.416.416,0,0,1,52.028,10.8Z" transform="translate(-10.25)" fill="#000733"/>
  </g>
</svg>
