<svg id="computer" xmlns="http://www.w3.org/2000/svg" width="94.424" height="89.506" viewBox="0 0 94.424 89.506">
  <path id="Path_56" data-name="Path 56" d="M68.225,114.5a4.723,4.723,0,0,1,7.312-.074l.734.88a.787.787,0,0,0,1.208,0l3.811-4.569a4.722,4.722,0,0,1,7.251,0l2.821,3.382a.787.787,0,0,0,1.391-.5V92.074A1.574,1.574,0,0,0,91.18,90.5H67.574A1.574,1.574,0,0,0,66,92.074V114.99a.787.787,0,0,0,1.391.5Zm8.791-19.667a6.295,6.295,0,1,1-6.295,6.295A6.3,6.3,0,0,1,77.016,94.828Z" transform="translate(-53.017 -75.156)" fill="#000733"/>
  <path id="Path_57" data-name="Path 57" d="M301.376,220.5h-23.8A1.576,1.576,0,0,0,276,222.074v8.065a1.576,1.576,0,0,0,1.574,1.574h23.8a1.575,1.575,0,0,0,1.574-1.574v-8.065A1.576,1.576,0,0,0,301.376,220.5Z" transform="translate(-221.706 -179.583)" fill="#000733"/>
  <path id="Path_58" data-name="Path 58" d="M86.124,201.291a1.572,1.572,0,0,0-2.417,0l-5.624,6.742A1.572,1.572,0,0,1,75.641,208L73.12,204.98a1.573,1.573,0,0,0-2.417,0l-4.52,5.419a.787.787,0,0,0-.183.5v4.138a1.574,1.574,0,0,0,1.574,1.574H91.18a1.574,1.574,0,0,0,1.574-1.574v-5.518a.788.788,0,0,0-.183-.5Z" transform="translate(-53.017 -163.698)" fill="#000733"/>
  <circle id="Ellipse_2" data-name="Ellipse 2" cx="3.796" cy="3.796" r="3.796" transform="translate(18.979 22.775)" fill="#000733"/>
  <path id="Path_59" data-name="Path 59" d="M88.129,12.5H6.295A6.3,6.3,0,0,0,0,18.795V73.679a1.574,1.574,0,0,0,1.574,1.574H92.85a1.574,1.574,0,0,0,1.574-1.574V18.795A6.3,6.3,0,0,0,88.129,12.5ZM42.884,63.843a4.727,4.727,0,0,1-4.721,4.721H14.557a4.727,4.727,0,0,1-4.721-4.721V29.418A4.727,4.727,0,0,1,14.557,24.7H38.163a4.727,4.727,0,0,1,4.721,4.721Zm41.507-.787a4.727,4.727,0,0,1-4.721,4.721h-23.8a4.727,4.727,0,0,1-4.721-4.721V54.991a4.727,4.727,0,0,1,4.721-4.721h23.8a4.727,4.727,0,0,1,4.721,4.721ZM82.817,42.2H63.31a3.141,3.141,0,0,1-5.443,0H52.72a1.574,1.574,0,0,1,0-3.147h5.147a3.141,3.141,0,0,1,5.443,0H82.817a1.574,1.574,0,0,1,0,3.147Zm0-11.8H77.67a3.141,3.141,0,0,1-5.443,0H52.72a1.574,1.574,0,1,1,0-3.147H72.227a3.141,3.141,0,0,1,5.443,0h5.147a1.574,1.574,0,1,1,0,3.147Z" transform="translate(0 -12.5)" fill="#000733"/>
  <path id="Path_60" data-name="Path 60" d="M186.4,424.123H164.144a4.72,4.72,0,0,1-4.544-6l.979-3.476a1.573,1.573,0,0,1,1.515-1.147H188.45a1.573,1.573,0,0,1,1.515,1.147l.979,3.474A4.721,4.721,0,0,1,186.4,424.123Z" transform="translate(-128.06 -334.617)" fill="#000733"/>
  <path id="Path_61" data-name="Path 61" d="M94.424,349.074v1.967a6.3,6.3,0,0,1-6.295,6.295H6.295A6.3,6.3,0,0,1,0,351.041v-1.967A1.574,1.574,0,0,1,1.574,347.5H92.85A1.574,1.574,0,0,1,94.424,349.074Z" transform="translate(0 -281.6)" fill="#000733"/>
</svg>
