<svg id="social-media_3_" data-name="social-media (3)" xmlns="http://www.w3.org/2000/svg" width="88.656" height="80.918" viewBox="0 0 88.656 80.918">
  <g id="content" transform="translate(0)">
    <path id="Path_34" data-name="Path 34" d="M6.464,32.787h27.7a6.209,6.209,0,0,0,6.464-5.9V13.4a6.209,6.209,0,0,0-6.464-5.9H6.464A6.209,6.209,0,0,0,0,13.4V26.887A6.209,6.209,0,0,0,6.464,32.787Z" transform="translate(0 17.787)" fill="#000733"/>
    <path id="Path_35" data-name="Path 35" d="M6.464,41.787h27.7a6.209,6.209,0,0,0,6.464-5.9V22.4a6.209,6.209,0,0,0-6.464-5.9H6.464A6.209,6.209,0,0,0,0,22.4V35.887A6.209,6.209,0,0,0,6.464,41.787Z" transform="translate(0 39.131)" fill="#000733"/>
    <path id="Path_36" data-name="Path 36" d="M82.191,0H6.464A6.209,6.209,0,0,0,0,5.9v8.429a6.209,6.209,0,0,0,6.464,5.9H82.191a6.209,6.209,0,0,0,6.464-5.9V5.9A6.209,6.209,0,0,0,82.191,0Z" transform="translate(0)" fill="#000733"/>
    <path id="Path_37" data-name="Path 37" d="M50.863,7.5H15.77A2.659,2.659,0,0,0,13,10.029a2.659,2.659,0,0,0,2.77,2.529H50.863a2.659,2.659,0,0,0,2.77-2.529A2.659,2.659,0,0,0,50.863,7.5Z" transform="translate(35.022 17.787)" fill="#000733"/>
    <path id="Path_38" data-name="Path 38" d="M50.863,10.5H15.77A2.659,2.659,0,0,0,13,13.029a2.659,2.659,0,0,0,2.77,2.529H50.863a2.659,2.659,0,0,0,2.77-2.529A2.659,2.659,0,0,0,50.863,10.5Z" transform="translate(35.022 24.902)" fill="#000733"/>
    <path id="Path_39" data-name="Path 39" d="M50.863,13.5H15.77A2.659,2.659,0,0,0,13,16.029a2.659,2.659,0,0,0,2.77,2.529H50.863a2.659,2.659,0,0,0,2.77-2.529A2.659,2.659,0,0,0,50.863,13.5Z" transform="translate(35.022 32.017)" fill="#000733"/>
    <path id="Path_40" data-name="Path 40" d="M50.863,16.5H15.77A2.659,2.659,0,0,0,13,19.029a2.659,2.659,0,0,0,2.77,2.529H50.863a2.659,2.659,0,0,0,2.77-2.529A2.659,2.659,0,0,0,50.863,16.5Z" transform="translate(35.022 39.131)" fill="#000733"/>
    <path id="Path_41" data-name="Path 41" d="M50.863,19.5H15.77A2.659,2.659,0,0,0,13,22.029a2.659,2.659,0,0,0,2.77,2.529H50.863a2.659,2.659,0,0,0,2.77-2.529A2.659,2.659,0,0,0,50.863,19.5Z" transform="translate(35.022 46.246)" fill="#000733"/>
    <path id="Path_42" data-name="Path 42" d="M50.863,22.5H15.77A2.659,2.659,0,0,0,13,25.029a2.659,2.659,0,0,0,2.77,2.529H50.863a2.659,2.659,0,0,0,2.77-2.529A2.659,2.659,0,0,0,50.863,22.5Z" transform="translate(35.022 53.361)" fill="#000733"/>
  </g>
</svg>
