<svg id="copywriting" xmlns="http://www.w3.org/2000/svg" width="94.566" height="80.918" viewBox="0 0 94.566 80.918">
  <path id="Path_23" data-name="Path 23" d="M8.311,40.959H35.238l10.27,9.374a2.968,2.968,0,0,0,3.019.548,2.535,2.535,0,0,0,1.71-2.336V40.959h8.311c4.583,0,8.311-3.4,8.311-7.586V8.086C66.861,3.9,63.132.5,58.549.5H8.311C3.729.5,0,3.9,0,8.086V33.373C0,37.556,3.729,40.959,8.311,40.959ZM50.238,15.672a5.322,5.322,0,0,1,5.541,5.057,5.564,5.564,0,0,1-11.082,0A5.322,5.322,0,0,1,50.238,15.672Zm-16.623,0a5.322,5.322,0,0,1,5.541,5.057,5.322,5.322,0,0,1-5.541,5.057,5.322,5.322,0,0,1-5.541-5.057A5.322,5.322,0,0,1,33.615,15.672Zm-16.808,0a5.322,5.322,0,0,1,5.541,5.057,5.322,5.322,0,0,1-5.541,5.057,5.322,5.322,0,0,1-5.541-5.057A5.322,5.322,0,0,1,16.808,15.672Zm0,0" transform="translate(0 -0.5)" fill="#000733"/>
  <path id="Path_24" data-name="Path 24" d="M2.771,423.132H41.531a6.61,6.61,0,0,0,1.642-.4l7.868-3.591a2.85,2.85,0,0,0,.72-.455L43.893,411.5a2.586,2.586,0,0,0-.5.657l-3.242,5.917H2.771a2.539,2.539,0,1,0,0,5.057Zm0,0" transform="translate(0 -342.214)" fill="#000733"/>
  <path id="Path_25" data-name="Path 25" d="M287.236,237.8,258.95,263.54l7.813,7.131L295.1,244.979Zm0,0" transform="translate(-211.122 -197.794)" fill="#000733"/>
  <path id="Path_26" data-name="Path 26" d="M443.206,181.259a2.929,2.929,0,0,0-3.934,0L433.4,186.62l7.813,7.13,5.874-5.36a2.355,2.355,0,0,0,0-3.591Zm0,0" transform="translate(-353.35 -150.156)" fill="#000733"/>
</svg>
