<svg xmlns="http://www.w3.org/2000/svg" width="94.423" height="94.424" viewBox="0 0 94.423 94.424">
  <g id="design" transform="translate(0)">
    <path id="Path_62" data-name="Path 62" d="M317.571,10.251l-7.826-7.828a8.316,8.316,0,0,0-11.735,0L296.138,4.3l9.781,9.781a2.766,2.766,0,0,1-3.912,3.912l-9.78-9.781-3.912,3.913,5.87,5.868a2.766,2.766,0,1,1-3.912,3.912l-5.87-5.868-7.825,7.826,19.56,19.559,21.436-21.43a8.319,8.319,0,0,0,0-11.736Zm0,0" transform="translate(-225.571 -0.001)" fill="#000733"/>
    <path id="Path_63" data-name="Path 63" d="M10.251,318.592a8.305,8.305,0,0,0,11.737,0L43.183,297.4l-19.56-19.563L15.8,285.662l5.869,5.869a2.766,2.766,0,0,1-3.912,3.912l-5.869-5.869-3.912,3.913,9.781,9.779a2.766,2.766,0,0,1-3.912,3.912L4.061,297.4l-1.635,1.632a8.31,8.31,0,0,0,0,11.738Zm0,0" transform="translate(0 -226.597)" fill="#000733"/>
    <path id="Path_64" data-name="Path 64" d="M.185,3.755,10.62,29.035,28.8,10.85,3.756.183A2.765,2.765,0,0,0,.185,3.755Zm0,0" transform="translate(-0.001 0.001)" fill="#000733"/>
    <path id="Path_65" data-name="Path 65" d="M189.4,134.625l7.823-7.823-50.7-50.477L138.7,84.148Zm0,0" transform="translate(-113.117 -62.248)" fill="#000733"/>
    <path id="Path_66" data-name="Path 66" d="M133.589,190.434l-50.7-50.477-7.823,7.823,50.7,50.48Zm0,0" transform="translate(-61.219 -114.146)" fill="#000733"/>
    <path id="Path_67" data-name="Path 67" d="M394.727,375.217l-3.974-3.975L371.192,390.8l3.977,3.977a8.322,8.322,0,0,0,11.735,0v0l7.823-7.823A8.294,8.294,0,0,0,394.727,375.217Zm0,0" transform="translate(-302.737 -302.777)" fill="#000733"/>
  </g>
</svg>
