<svg id="social-media_2_" data-name="social-media (2)" xmlns="http://www.w3.org/2000/svg" width="88.656" height="80.918" viewBox="0 0 88.656 80.918">
  <path id="Path_29" data-name="Path 29" d="M367.139,357.177a3.142,3.142,0,1,0-3.429-3.129,3.293,3.293,0,0,0,3.429,3.129Z" transform="translate(-300.732 -295.459)" fill="#000733"/>
  <path id="Path_30" data-name="Path 30" d="M344.359,420.51h0c-4.519,0-8.2,3.357-8.2,7.483v5.554a24.338,24.338,0,0,0,16.4,0v-5.554C352.556,423.867,348.878,420.51,344.359,420.51Z" transform="translate(-277.952 -354.051)" fill="#000733"/>
  <path id="Path_31" data-name="Path 31" d="M66.405,40.3a23.5,23.5,0,0,0-13.8,4.388l-13-11.662c.037-.042.075-.083.112-.126a19.37,19.37,0,0,0,4.628-10.222H61.663C62.879,28.4,68.41,32.742,75.033,32.742c7.511,0,13.622-5.577,13.622-12.433S82.545,7.875,75.033,7.875c-6.623,0-12.154,4.337-13.371,10.062H44.349C43.058,7.852,33.64,0,22.25,0,9.981,0,0,9.11,0,20.309A19.752,19.752,0,0,0,8.857,36.54v-2.9a12.073,12.073,0,0,1,6.592-10.526,7.406,7.406,0,0,1-1.822-4.828c0-4.34,3.868-7.869,8.623-7.869s8.621,3.529,8.621,7.869a7.4,7.4,0,0,1-1.82,4.828,12.439,12.439,0,0,1,6.215,7.645c.461,1.735.376,2.737.376,5.781L48.912,48.074a19.314,19.314,0,0,0-4.6,10.166H26.993c-1.216-5.726-6.748-10.063-13.371-10.063C6.111,48.176,0,53.754,0,60.61S6.111,73.043,13.622,73.043c6.623,0,12.154-4.337,13.371-10.062H44.306a19.98,19.98,0,0,0,8.708,13.862v-2.9A12.072,12.072,0,0,1,59.6,63.417a7.4,7.4,0,0,1-1.82-4.828c0-4.338,3.867-7.869,8.621-7.869s8.623,3.531,8.623,7.869a7.406,7.406,0,0,1-1.822,4.828A12.073,12.073,0,0,1,79.8,73.942v2.9A19.752,19.752,0,0,0,88.656,60.61c0-11.2-9.981-20.309-22.25-20.309Z" transform="translate(0 0)" fill="#000733"/>
  <path id="Path_32" data-name="Path 32" d="M115.555,99.048a3.442,3.442,0,1,0-3.427,3.128A3.291,3.291,0,0,0,115.555,99.048Z" transform="translate(-89.878 -80.76)" fill="#000733"/>
  <path id="Path_33" data-name="Path 33" d="M81.15,172.985v5.554a24.335,24.335,0,0,0,16.4,0v-5.554c0-4.126-3.676-7.485-8.2-7.485S81.15,168.858,81.15,172.985Z" transform="translate(-67.098 -139.344)" fill="#000733"/>
</svg>
