<svg id="email" xmlns="http://www.w3.org/2000/svg" width="95.784" height="64.141" viewBox="0 0 95.784 64.141">
  <g id="Group_22" data-name="Group 22" transform="translate(63.493 11.825)">
    <g id="Group_21" data-name="Group 21">
      <path id="Path_86" data-name="Path 86" d="M339.392,165.619,371.683,185.5V144.9Z" transform="translate(-339.392 -144.896)" fill="#000733"/>
    </g>
  </g>
  <g id="Group_24" data-name="Group 24" transform="translate(0 11.825)">
    <g id="Group_23" data-name="Group 23">
      <path id="Path_87" data-name="Path 87" d="M0,144.9V185.5l32.291-19.884Z" transform="translate(0 -144.896)" fill="#000733"/>
    </g>
  </g>
  <g id="Group_26" data-name="Group 26" transform="translate(0.18)">
    <g id="Group_25" data-name="Group 25">
      <path id="Path_88" data-name="Path 88" d="M90.578,80H6.767A5.862,5.862,0,0,0,.96,84.962l47.712,30.619L96.385,84.962A5.862,5.862,0,0,0,90.578,80Z" transform="translate(-0.96 -80)" fill="#000733"/>
    </g>
  </g>
  <g id="Group_28" data-name="Group 28" transform="translate(0.192 36.065)">
    <g id="Group_27" data-name="Group 27">
      <path id="Path_89" data-name="Path 89" d="M58.842,277.926l-8.471,5.435a3.074,3.074,0,0,1-3.293,0l-8.471-5.44L1.024,301.075A5.854,5.854,0,0,0,6.819,306H90.63a5.854,5.854,0,0,0,5.795-4.921Z" transform="translate(-1.024 -277.92)" fill="#000733"/>
    </g>
  </g>
</svg>
