<svg xmlns="http://www.w3.org/2000/svg" width="67.867" height="104.205" viewBox="0 0 67.867 104.205">
  <g id="id-card" transform="translate(0)">
    <g id="Group_20" data-name="Group 20">
      <g id="Group_19" data-name="Group 19">
        <path id="Path_74" data-name="Path 74" d="M165.292,159.4a9.926,9.926,0,1,0-9.926-9.926A9.925,9.925,0,0,0,165.292,159.4Z" transform="translate(-131.359 -101.665)" fill="#000733"/>
        <path id="Path_75" data-name="Path 75" d="M124.322,12.461H108.893V2.677A2.677,2.677,0,0,0,106.216,0H95.51a2.677,2.677,0,0,0-2.677,2.677v9.784H77.4A10.475,10.475,0,0,0,66.93,22.936V93.729A10.475,10.475,0,0,0,77.4,104.2h46.917A10.475,10.475,0,0,0,134.8,93.729V22.936A10.475,10.475,0,0,0,124.322,12.461ZM97.395,3.884h6.938a1.706,1.706,0,0,1,0,3.413H97.394a1.706,1.706,0,0,1,0-3.413ZM92.057,16.016h.776v.7A2.677,2.677,0,0,0,95.51,19.39h10.706a2.677,2.677,0,0,0,2.677-2.677v-.7h.776a2.908,2.908,0,1,1,0,5.817H92.057a2.908,2.908,0,1,1,0-5.817Zm-9.19,19.291h35.992V69.384h-4.143l.536-6.97a3.388,3.388,0,0,0-3.378-3.648H89.852a3.388,3.388,0,0,0-3.378,3.648l.536,6.97H82.868V35.307Zm35.569,53.908H83.29a3.272,3.272,0,0,1,0-6.544h35.146a3.272,3.272,0,0,1,0,6.544Z" transform="translate(-66.93)" fill="#000733"/>
      </g>
    </g>
  </g>
</svg>
