<svg xmlns="http://www.w3.org/2000/svg" width="42.248" height="40.789" viewBox="0 0 42.248 40.789">
  <path id="megaphone" d="M34.454,31.62A43.348,43.348,0,0,0,16.4,36.344L9.378,40.4a3.878,3.878,0,0,1-5.293-1.419L.518,32.8a3.879,3.879,0,0,1,1.419-5.293l5.816-3.358a.7.7,0,0,1,.962.258l4.57,7.915a.7.7,0,0,0,.98.247.723.723,0,0,0,.225-.976l-4.6-7.972a.7.7,0,0,1,.208-.929A43.337,43.337,0,0,0,22.076,10.18a2.948,2.948,0,0,1,5.046.1L36.892,27.2A2.947,2.947,0,0,1,34.454,31.62Zm1.254-11.786A4.406,4.406,0,0,0,32.9,14.977a.7.7,0,0,0-.848,1.015L34.4,20.071A.705.705,0,0,0,35.708,19.834ZM19.453,44.75l-3.342-5.8a.7.7,0,0,0-.962-.258l-4.3,2.48a.7.7,0,0,0-.258.962l3.347,5.8a2.288,2.288,0,0,0,1.987,1.146c.762,0,1.054-.258,2.685-1.2A2.291,2.291,0,0,0,19.453,44.75Zm21.4-30.27a.7.7,0,1,0-.7-1.22l-1.822,1.052a.705.705,0,0,0,.353,1.314C38.927,15.627,38.876,15.619,40.849,14.48Zm-6.475-3.649.444-1.658a.7.7,0,1,0-1.36-.364l-.444,1.658a.7.7,0,1,0,1.36.364ZM42.224,22a.7.7,0,0,0-.5-.862l-1.658-.444a.7.7,0,0,0-.364,1.36,11.415,11.415,0,0,0,1.841.468.7.7,0,0,0,.68-.522Z" transform="translate(0 -8.287)" fill="#fff"/>
</svg>
