<svg id="packaging" xmlns="http://www.w3.org/2000/svg" width="73.676" height="104.205" viewBox="0 0 73.676 104.205">
  <path id="Path_68" data-name="Path 68" d="M143.507,60H102.2L92.026,72.211h41.3Z" transform="translate(-88.561 -47.789)" fill="#000733"/>
  <path id="Path_69" data-name="Path 69" d="M118.147,240.531c-9.307.679-14.395,4.463-19.752,8.447-5.939,4.417-12.068,8.97-23.4,9.667v37.137h43.147Z" transform="translate(-75 -191.577)" fill="#000733"/>
  <path id="Path_70" data-name="Path 70" d="M150,0h43.147V6.106H150Z" transform="translate(-134.736)" fill="#000733"/>
  <path id="Path_71" data-name="Path 71" d="M94.752,171.973c5.939-4.417,12.068-8.97,23.4-9.667V150H75v30.421C84.307,179.742,89.395,175.958,94.752,171.973Z" transform="translate(-75 -119.471)" fill="#000733"/>
  <path id="Path_72" data-name="Path 72" d="M334.026,78.927h17.493l-8.746-10.5Z" transform="translate(-281.308 -54.504)" fill="#000733"/>
  <path id="Path_73" data-name="Path 73" d="M317,150h24.423v73.676H317Z" transform="translate(-267.747 -119.471)" fill="#000733"/>
</svg>
