<svg id="Group_78" data-name="Group 78" xmlns="http://www.w3.org/2000/svg" width="43.671" height="43.67" viewBox="0 0 43.671 43.67">
  <g id="paint-palette">
    <path id="Path_139" data-name="Path 139" d="M12.879,366.122a5.118,5.118,0,1,0-10.235,0v2.559A2.71,2.71,0,0,1,0,371.324v2.559H5.2A7.758,7.758,0,0,0,12.879,366.122Z" transform="translate(0 -330.213)" fill="#fff"/>
    <path id="Path_140" data-name="Path 140" d="M240.887,125.132a1.279,1.279,0,1,0,1.567.9A1.278,1.278,0,0,0,240.887,125.132Z" transform="translate(-219.473 -114.419)" fill="#fff"/>
    <path id="Path_141" data-name="Path 141" d="M165.61,212.432a1.279,1.279,0,0,0,.663-2.471h0a.939.939,0,0,0-.718.06q.022,1.157.03,2.4C165.593,212.423,165.6,212.43,165.61,212.432Z" transform="translate(-151.433 -192.01)" fill="#fff"/>
    <path id="Path_142" data-name="Path 142" d="M304.568,357.859a1.279,1.279,0,1,0-.9,1.568,1.279,1.279,0,0,0,.9-1.568Z" transform="translate(-276.29 -326.469)" fill="#fff"/>
    <path id="Path_143" data-name="Path 143" d="M358.04,158.329a1.28,1.28,0,1,0-1.809,0A1.283,1.283,0,0,0,358.04,158.329Z" transform="translate(-325.504 -142.826)" fill="#fff"/>
    <path id="Path_144" data-name="Path 144" d="M167.453,30.093a21.321,21.321,0,0,0-11.136,3.922,82.746,82.746,0,0,1,.718,8.878,3.838,3.838,0,1,1,.463,7.649c-.123,0-.245-.037-.368-.049-.015,2.046-.062,4.071-.15,6a6.745,6.745,0,0,1,3,2.209,6.182,6.182,0,0,1,.851,4.774,3.852,3.852,0,0,0,2.925,4.7,19.255,19.255,0,0,0,22.9-18.985C186.565,38.26,177.1,29.73,167.453,30.093ZM171.9,39.4a3.839,3.839,0,1,1,5.43,5.429h0a3.84,3.84,0,0,1-5.43-5.43Zm-10.877,1.057a3.838,3.838,0,1,1,4.7,2.715A3.835,3.835,0,0,1,161.022,40.457Zm10,22.488a3.838,3.838,0,1,1,2.714-4.7A3.842,3.842,0,0,1,171.02,62.945Zm9.951-9.952a3.838,3.838,0,1,1-2.714-4.7A3.835,3.835,0,0,1,180.972,52.993Z" transform="translate(-142.984 -27.516)" fill="#fff"/>
    <path id="Path_145" data-name="Path 145" d="M388.518,272.1a1.279,1.279,0,1,0,.9,1.567A1.279,1.279,0,0,0,388.518,272.1Z" transform="translate(-353.907 -248.851)" fill="#fff"/>
    <path id="Path_146" data-name="Path 146" d="M53.661,23.118c0-.428.015-.849.015-1.279C53.676,11.917,53.01,0,49.838,0S46,11.917,46,21.839c0,.43.012.851.015,1.279Z" transform="translate(-42.077 -0.004)" fill="#fff"/>
    <path id="Path_147" data-name="Path 147" d="M50.359,303.563a7.581,7.581,0,0,1,3.663.972c.055-1.148.1-2.331.127-3.531H46.569c.03,1.2.072,2.383.127,3.531A7.58,7.58,0,0,1,50.359,303.563Z" transform="translate(-42.597 -275.331)" fill="#fff"/>
  </g>
</svg>
