<svg xmlns="http://www.w3.org/2000/svg" width="89.485" height="89.401" viewBox="0 0 89.485 89.401">
  <path id="search" d="M89.108,81.43,67.049,59.3a35.222,35.222,0,0,0,8.78-23.2C75.828,16.193,59.04,0,38.406,0S.984,16.193.984,36.1s16.788,36.1,37.422,36.1a37.966,37.966,0,0,0,21.44-6.532l22.227,22.3a5.01,5.01,0,0,0,6.9.13A4.6,4.6,0,0,0,89.108,81.43ZM38.406,9.416c15.252,0,27.66,11.968,27.66,26.679S53.658,62.775,38.406,62.775,10.746,50.807,10.746,36.1,23.154,9.416,38.406,9.416Z" transform="translate(-0.984)" fill="#000733"/>
</svg>
