<svg id="social-media_4_" data-name="social-media (4)" xmlns="http://www.w3.org/2000/svg" width="85.481" height="78.02" viewBox="0 0 85.481 78.02">
  <g id="Group_35" data-name="Group 35">
    <g id="Group_34" data-name="Group 34">
      <path id="Path_94" data-name="Path 94" d="M238.093,90a3.832,3.832,0,0,0-3.99,3.641v9.479a4.006,4.006,0,0,0,7.979,0V93.641A3.832,3.832,0,0,0,238.093,90Z" transform="translate(-195.019 -76.285)" fill="#000733"/>
      <path id="Path_95" data-name="Path 95" d="M79.637,0H5.843A5.612,5.612,0,0,0,0,5.333V38.858a5.612,5.612,0,0,0,5.843,5.333H9.815L22.438,55.712c1.578,1.44,4.275.42,4.275-1.616v-9.9H79.637a5.612,5.612,0,0,0,5.843-5.333V5.333A5.612,5.612,0,0,0,79.637,0ZM29.321,35c-3.24.037-5.61.053-7.354.053-4.487,0-4.823-.1-5.152-.2a2.5,2.5,0,0,1-1.7-1.569,2.605,2.605,0,0,1,.566-2.431c.23-.305.563-.7,1.067-1.306,1.165-1.392,3.332-3.982,6.965-8.719a11.3,11.3,0,0,0,2.022-3.646l.073-.521a3.244,3.244,0,0,0-3.359-2.943,3.3,3.3,0,0,0-3.3,2.471,2.505,2.505,0,0,1-2.94,1.8A2.3,2.3,0,0,1,14.238,15.3a8.229,8.229,0,0,1,8.213-6.161c4.615,0,8.37,3.427,8.37,7.64a2.1,2.1,0,0,1-.02.29l-.113.809a2.094,2.094,0,0,1-.045.226,15.258,15.258,0,0,1-2.825,5.337c-2.471,3.223-4.278,5.471-5.559,7.031,2.069,0,4.608-.02,7-.048A2.3,2.3,0,1,1,29.321,35Zm22.752-8.165c0,4.529-4.037,8.213-9,8.213s-9-3.684-9-8.213V17.356c0-4.529,4.037-8.213,9-8.213s9,3.684,9,8.213Zm18.473,7.553A2.677,2.677,0,0,1,67,34.369L61.321,29.12V32.7a2.515,2.515,0,0,1-5.009,0V11.429a2.515,2.515,0,0,1,5.009,0v8.848l5.01-3.738a2.671,2.671,0,0,1,3.524.323,2.152,2.152,0,0,1-.354,3.216l-6.045,4.509,7.111,6.568a2.147,2.147,0,0,1-.021,3.233Z" fill="#000733"/>
    </g>
  </g>
  <path id="Path_96" data-name="Path 96" d="M205.88,324.779l-.593.541-.593-.541a11.028,11.028,0,0,0-14.574,0,8.846,8.846,0,0,0,0,13.3l13.4,12.227a2.677,2.677,0,0,0,3.542,0l13.4-12.227a8.846,8.846,0,0,0,0-13.3A11.027,11.027,0,0,0,205.88,324.779Z" transform="translate(-155.868 -272.957)" fill="#000733"/>
</svg>
