<svg id="video-player" xmlns="http://www.w3.org/2000/svg" width="49.724" height="40.789" viewBox="0 0 49.724 40.789">
  <circle id="Ellipse_1" data-name="Ellipse 1" cx="1.427" cy="1.427" r="1.427" transform="translate(11.418 28.546)" fill="#fff"/>
  <path id="Path_9" data-name="Path 9" d="M211,175.272v6.94l6.94-3.47Z" transform="translate(-190.508 -162.718)" fill="#fff"/>
  <path id="Path_10" data-name="Path 10" d="M45.354,46H4.37A4.375,4.375,0,0,0,0,50.37V82.419a4.375,4.375,0,0,0,4.37,4.37H45.354a4.375,4.375,0,0,0,4.37-4.37V50.37A4.375,4.375,0,0,0,45.354,46ZM17.578,56.2a1.457,1.457,0,0,1,2.108-1.3l11.654,5.827a1.457,1.457,0,0,1,0,2.606L19.686,69.154a1.457,1.457,0,0,1-2.108-1.3ZM42.343,78.049H17.31a4.344,4.344,0,0,1-8.2,0H7.381a1.457,1.457,0,1,1,0-2.913H9.106a4.344,4.344,0,0,1,8.2,0H42.343a1.457,1.457,0,1,1,0,2.913Z" transform="translate(0 -46)" fill="#fff"/>
</svg>
