<svg id="world-wide-web" xmlns="http://www.w3.org/2000/svg" width="94.595" height="94.595" viewBox="0 0 94.595 94.595">
  <g id="Group_2" data-name="Group 2" transform="translate(30.269 6.005)">
    <g id="Group_1" data-name="Group 1">
      <path id="Path_47" data-name="Path 47" d="M163.83,54.394h14.258V32.5C172.136,34.455,166.783,42.81,163.83,54.394Z" transform="translate(-163.83 -32.501)" fill="#000733"/>
    </g>
  </g>
  <g id="Group_4" data-name="Group 4" transform="translate(30.269 66.697)">
    <g id="Group_3" data-name="Group 3">
      <path id="Path_48" data-name="Path 48" d="M163.83,361c2.953,11.585,8.306,19.939,14.258,21.893V361Z" transform="translate(-163.83 -361)" fill="#000733"/>
    </g>
  </g>
  <g id="Group_6" data-name="Group 6" transform="translate(0 33.441)">
    <g id="Group_5" data-name="Group 5">
      <path id="Path_49" data-name="Path 49" d="M91.824,181H2.771A2.771,2.771,0,0,0,0,183.771v22.171a2.771,2.771,0,0,0,2.771,2.771H91.824a2.771,2.771,0,0,0,2.771-2.771V183.771A2.771,2.771,0,0,0,91.824,181Zm-3.248,9.553-5.543,11.085a2.772,2.772,0,0,1-4.958,0l-3.064-6.127-3.064,6.127a2.886,2.886,0,0,1-4.958,0l-5.31-10.623a2.69,2.69,0,0,1-.561-1.41,2.737,2.737,0,0,1-.257.948l-5.543,11.085a2.772,2.772,0,0,1-4.958,0L47.3,195.512l-3.064,6.127a2.886,2.886,0,0,1-4.958,0l-5.543-11.085a2.726,2.726,0,0,1-.247-.912,2.839,2.839,0,0,1-.66,1.556l-5.221,10.441a2.772,2.772,0,0,1-4.958,0l-3.064-6.127-3.064,6.127a2.772,2.772,0,0,1-4.958,0L6.02,190.553a2.772,2.772,0,0,1,4.958-2.479l3.064,6.127,3.064-6.127a2.793,2.793,0,0,1,4.958,0l3.064,6.127,3.064-6.127a2.877,2.877,0,0,1,2.658-1.526,2.834,2.834,0,0,1,2.631,2.681,2.742,2.742,0,0,1,1.493-2.394,2.776,2.776,0,0,1,3.719,1.24l3.064,6.127,3.064-6.127a2.886,2.886,0,0,1,4.958,0L52.84,194.2l3.064-6.127a2.776,2.776,0,0,1,3.719-1.24,2.738,2.738,0,0,1,1.49,2.368,2.664,2.664,0,0,1,2.467-2.644,3.067,3.067,0,0,1,2.826,1.516l3.064,6.127,3.064-6.127a2.886,2.886,0,0,1,4.958,0l3.064,6.127,3.064-6.127a2.772,2.772,0,0,1,4.958,2.479Z" transform="translate(0 -181)" fill="#000733"/>
    </g>
  </g>
  <g id="Group_8" data-name="Group 8" transform="translate(50.069 66.697)">
    <g id="Group_7" data-name="Group 7">
      <path id="Path_50" data-name="Path 50" d="M271,361v21.893c5.952-1.954,11.3-10.309,14.258-21.893Z" transform="translate(-271 -361)" fill="#000733"/>
    </g>
  </g>
  <g id="Group_10" data-name="Group 10" transform="translate(50.069 6.005)">
    <g id="Group_9" data-name="Group 9">
      <path id="Path_51" data-name="Path 51" d="M271,32.5V54.394h14.258C282.3,42.81,276.952,34.455,271,32.5Z" transform="translate(-271 -32.501)" fill="#000733"/>
    </g>
  </g>
  <g id="Group_12" data-name="Group 12" transform="translate(4.535 66.697)">
    <g id="Group_11" data-name="Group 11">
      <path id="Path_52" data-name="Path 52" d="M44.585,361H24.544c7.575,16.632,24.349,27.9,42.763,27.9C57.3,388.9,48.55,377.873,44.585,361Z" transform="translate(-24.544 -361)" fill="#000733"/>
    </g>
  </g>
  <g id="Group_14" data-name="Group 14" transform="translate(47.297 66.697)">
    <g id="Group_13" data-name="Group 13">
      <path id="Path_53" data-name="Path 53" d="M278.721,361c-3.965,16.873-12.71,27.9-22.722,27.9,18.414,0,35.188-11.266,42.763-27.9Z" transform="translate(-256 -361)" fill="#000733"/>
    </g>
  </g>
  <g id="Group_16" data-name="Group 16" transform="translate(4.535)">
    <g id="Group_15" data-name="Group 15">
      <path id="Path_54" data-name="Path 54" d="M24.544,27.9H44.585C48.55,11.025,57.3,0,67.307,0,48.893,0,32.119,11.266,24.544,27.9Z" transform="translate(-24.544 0)" fill="#000733"/>
    </g>
  </g>
  <g id="Group_18" data-name="Group 18" transform="translate(47.297 0)">
    <g id="Group_17" data-name="Group 17">
      <path id="Path_55" data-name="Path 55" d="M256,0c10.011,0,18.757,11.025,22.722,27.9h20.041C291.188,11.266,274.414,0,256,0Z" transform="translate(-256)" fill="#000733"/>
    </g>
  </g>
</svg>
