<?xml version="1.0" encoding="UTF-8"?>
<svg xmlns="http://www.w3.org/2000/svg" xmlns:xlink="http://www.w3.org/1999/xlink" width="150pt" height="149.999998pt" viewBox="0 0 150 149.999998" version="1.2">
<g id="surface1">
<path style=" stroke:none;fill-rule:nonzero;fill:rgb(95.289612%,94.898987%,94.509888%);fill-opacity:1;" d="M 74.96875 13.523438 C 94.984375 13.523438 97.347656 13.589844 105.269531 13.953125 C 112.566406 14.28125 116.542969 15.496094 119.203125 16.546875 C 122.6875 17.894531 125.1875 19.539062 127.816406 22.167969 C 130.445312 24.796875 132.054688 27.296875 133.4375 30.777344 C 134.453125 33.40625 135.671875 37.386719 136.03125 44.714844 C 136.394531 52.632812 136.460938 55 136.460938 75.015625 C 136.460938 95.03125 136.394531 97.398438 136.03125 105.320312 C 135.703125 112.613281 134.488281 116.589844 133.4375 119.253906 C 132.089844 122.738281 130.445312 125.234375 127.816406 127.863281 C 125.1875 130.492188 122.6875 132.105469 119.203125 133.484375 C 116.574219 134.503906 112.597656 135.71875 105.269531 136.082031 C 97.347656 136.441406 94.984375 136.507812 74.96875 136.507812 C 54.953125 136.507812 52.585938 136.441406 44.664062 136.082031 C 37.367188 135.753906 33.390625 134.535156 30.730469 133.484375 C 27.246094 132.136719 24.746094 130.492188 22.117188 127.863281 C 19.488281 125.234375 17.878906 122.738281 16.5 119.253906 C 15.480469 116.625 14.265625 112.648438 13.902344 105.320312 C 13.539062 97.398438 13.476562 95.03125 13.476562 75.015625 C 13.476562 55 13.539062 52.632812 13.902344 44.714844 C 14.230469 37.417969 15.445312 33.441406 16.5 30.777344 C 17.847656 27.296875 19.488281 24.796875 22.117188 22.167969 C 24.746094 19.539062 27.246094 17.929688 30.730469 16.546875 C 33.359375 15.527344 37.335938 14.3125 44.664062 13.953125 C 52.585938 13.589844 54.953125 13.523438 74.96875 13.523438 M 74.96875 0.015625 C 54.589844 0.015625 52.058594 0.113281 44.039062 0.476562 C 36.054688 0.839844 30.597656 2.121094 25.832031 3.960938 C 20.902344 5.867188 16.730469 8.429688 12.554688 12.605469 C 8.414062 16.777344 5.851562 20.953125 3.945312 25.882812 C 2.101562 30.648438 0.820312 36.101562 0.460938 44.089844 C 0.0976562 52.074219 0 54.640625 0 74.984375 C 0 95.359375 0.0976562 97.890625 0.460938 105.910156 C 0.820312 113.898438 2.101562 119.351562 3.945312 124.117188 C 5.851562 129.046875 8.414062 133.222656 12.585938 137.394531 C 16.761719 141.570312 20.9375 144.132812 25.867188 146.039062 C 30.632812 147.878906 36.085938 149.160156 44.074219 149.523438 C 52.058594 149.886719 54.625 149.984375 75 149.984375 C 95.375 149.984375 97.90625 149.886719 105.925781 149.523438 C 113.914062 149.160156 119.367188 147.878906 124.132812 146.039062 C 129.0625 144.132812 133.238281 141.570312 137.414062 137.394531 C 141.585938 133.222656 144.148438 129.046875 146.054688 124.117188 C 147.898438 119.351562 149.179688 113.898438 149.539062 105.910156 C 149.902344 97.925781 150 95.359375 150 74.984375 C 150 54.605469 149.902344 52.074219 149.539062 44.058594 C 149.179688 36.070312 147.898438 30.613281 146.054688 25.847656 C 144.148438 20.917969 141.585938 16.746094 137.414062 12.570312 C 133.238281 8.398438 129.0625 5.832031 124.132812 3.925781 C 119.367188 2.085938 113.914062 0.804688 105.925781 0.445312 C 97.90625 0.113281 95.34375 0.015625 74.96875 0.015625 "/>
<path style=" stroke:none;fill-rule:nonzero;fill:rgb(95.289612%,94.898987%,94.509888%);fill-opacity:1;" d="M 74.96875 36.496094 C 53.703125 36.496094 36.480469 53.71875 36.480469 74.984375 C 36.480469 96.246094 53.734375 113.503906 75 113.503906 C 96.265625 113.503906 113.519531 96.28125 113.519531 74.984375 C 113.484375 53.71875 96.230469 36.496094 74.96875 36.496094 M 74.96875 99.996094 C 61.164062 99.996094 49.988281 88.820312 49.988281 75.015625 C 49.988281 61.210938 61.164062 50.039062 74.96875 50.039062 C 88.769531 50.039062 99.945312 61.210938 99.945312 75.015625 C 99.976562 88.789062 88.769531 99.996094 74.96875 99.996094 "/>
<path style=" stroke:none;fill-rule:nonzero;fill:rgb(95.289612%,94.898987%,94.509888%);fill-opacity:1;" d="M 124.003906 34.984375 C 124.003906 39.949219 119.960938 43.992188 114.996094 43.992188 C 110.035156 43.992188 105.992188 39.949219 105.992188 34.984375 C 105.992188 30.023438 110.035156 25.980469 114.996094 25.980469 C 119.960938 25.980469 124.003906 29.988281 124.003906 34.984375 "/>
</g>
</svg>
