<?xml version="1.0" encoding="UTF-8"?>
<svg xmlns="http://www.w3.org/2000/svg" xmlns:xlink="http://www.w3.org/1999/xlink" width="150pt" height="149.999998pt" viewBox="0 0 150 149.999998" version="1.2">
<g id="surface1">
<path style=" stroke:none;fill-rule:nonzero;fill:rgb(95.289612%,94.898987%,94.509888%);fill-opacity:1;" d="M 133.332031 0 L 16.667969 0 C 7.457031 0 0 7.457031 0 16.667969 L 0 133.332031 C 0 142.542969 7.457031 150 16.667969 150 L 133.332031 150 C 142.542969 150 150 142.542969 150 133.332031 L 150 16.667969 C 150 7.457031 142.542969 0 133.332031 0 Z M 50 116.667969 L 28.976562 116.667969 L 28.976562 58.332031 L 50 58.332031 Z M 39.117188 47.640625 C 32.691406 47.640625 28.398438 43.359375 28.398438 37.640625 C 28.398438 31.925781 32.683594 27.640625 39.824219 27.640625 C 46.25 27.640625 50.542969 31.925781 50.542969 37.640625 C 50.542969 43.359375 46.257812 47.640625 39.117188 47.640625 Z M 125 116.667969 L 104.648438 116.667969 L 104.648438 84.785156 C 104.648438 75.964844 99.226562 73.933594 97.191406 73.933594 C 95.160156 73.933594 88.375 75.292969 88.375 84.785156 C 88.375 86.140625 88.375 116.667969 88.375 116.667969 L 67.351562 116.667969 L 67.351562 58.332031 L 88.375 58.332031 L 88.375 66.476562 C 91.082031 61.726562 96.507812 58.332031 106.683594 58.332031 C 116.859375 58.332031 125 66.476562 125 84.785156 Z M 125 116.667969 "/>
</g>
</svg>
