<?xml version="1.0" encoding="UTF-8"?>
<svg xmlns="http://www.w3.org/2000/svg" xmlns:xlink="http://www.w3.org/1999/xlink" width="150pt" height="149.999998pt" viewBox="0 0 150 149.999998" version="1.2">
<g id="surface1">
<path style=" stroke:none;fill-rule:nonzero;fill:rgb(95.289612%,94.898987%,94.509888%);fill-opacity:1;" d="M 132.144531 0 L 17.855469 0 C 8.011719 0 0 8.011719 0 17.855469 L 0 132.144531 C 0 141.988281 8.011719 150 17.855469 150 L 132.144531 150 C 141.988281 150 150 141.988281 150 132.144531 L 150 17.855469 C 150 8.011719 141.988281 0 132.144531 0 Z M 117.878906 65.4375 C 117.066406 65.515625 116.246094 65.5625 115.414062 65.5625 C 106.046875 65.5625 97.8125 60.746094 93.023438 53.464844 C 93.023438 72.566406 93.023438 94.304688 93.023438 94.667969 C 93.023438 111.484375 79.390625 125.121094 62.570312 125.121094 C 45.753906 125.121094 32.117188 111.484375 32.117188 94.667969 C 32.117188 77.851562 45.753906 64.214844 62.570312 64.214844 C 63.207031 64.214844 63.828125 64.269531 64.453125 64.3125 L 64.453125 79.316406 C 63.828125 79.242188 63.214844 79.128906 62.570312 79.128906 C 53.984375 79.128906 47.027344 86.085938 47.027344 94.671875 C 47.027344 103.257812 53.984375 110.214844 62.570312 110.214844 C 71.15625 110.214844 78.738281 103.449219 78.738281 94.863281 C 78.738281 94.523438 78.890625 24.886719 78.890625 24.886719 L 93.230469 24.886719 C 94.582031 37.710938 104.9375 47.832031 117.878906 48.761719 Z M 117.878906 65.4375 "/>
</g>
</svg>
