<?xml version="1.0" encoding="UTF-8"?>
<svg xmlns="http://www.w3.org/2000/svg" xmlns:xlink="http://www.w3.org/1999/xlink" width="150pt" height="149.999998pt" viewBox="0 0 150 149.999998" version="1.2">
<defs>
<clipPath id="clip1">
  <path d="M 0.292969 12.425781 L 150 12.425781 L 150 139.125 L 0.292969 139.125 Z M 0.292969 12.425781 "/>
</clipPath>
</defs>
<g id="surface1">
<g clip-path="url(#clip1)" clip-rule="nonzero">
<path style=" stroke:none;fill-rule:nonzero;fill:rgb(95.289612%,94.898987%,94.509888%);fill-opacity:1;" d="M 148.972656 44.242188 C 148.238281 43.078125 146.820312 42.53125 145.5 42.921875 C 143.039062 43.640625 139.910156 44.296875 136.210938 44.863281 C 139.640625 43.117188 142.371094 41.234375 144.320312 39.285156 C 145.378906 38.226562 145.519531 36.566406 144.664062 35.34375 C 143.8125 34.121094 142.199219 33.695312 140.847656 34.324219 C 137.269531 36.003906 133.367188 36.867188 129.257812 36.890625 C 122.257812 21.878906 109.761719 16.320312 109.28125 16.117188 C 101.652344 12.652344 94.382812 11.617188 87.886719 13.058594 C 70.480469 16.921875 62.523438 37.625 65.125 54.585938 C 60.496094 54.265625 35.851562 51.789062 4.886719 34.207031 C 3.925781 33.65625 2.746094 33.671875 1.792969 34.234375 C 0.847656 34.804688 0.273438 35.832031 0.292969 36.9375 C 0.65625 55.300781 17.429688 64.070312 24.628906 66.980469 C 23.105469 67.136719 20.765625 67.175781 18.492188 67.078125 C 17.128906 67.019531 15.867188 67.886719 15.449219 69.199219 C 15.019531 70.515625 15.523438 71.945312 16.664062 72.703125 C 21.703125 76.066406 26.753906 78.261719 31.675781 79.253906 C 30.609375 79.328125 29.507812 79.375 28.425781 79.410156 C 27.054688 79.457031 25.875 80.402344 25.546875 81.730469 C 25.207031 83.058594 25.792969 84.453125 26.976562 85.132812 C 31.585938 87.8125 38.734375 91 46.671875 91 L 47.242188 90.992188 C 46.363281 91.316406 45.378906 91.601562 44.316406 91.839844 C 43.984375 91.910156 43.660156 91.976562 43.332031 92.035156 C 41.945312 92.300781 40.917969 93.46875 40.832031 94.878906 C 40.75 96.289062 41.636719 97.574219 42.980469 97.992188 C 48.816406 99.816406 54.261719 100.234375 58.882812 99.207031 C 59.753906 99.011719 60.617188 98.765625 61.433594 98.464844 L 61.441406 98.464844 C 61.3125 103.175781 58.832031 119.027344 32.183594 124.945312 L 31.832031 125.023438 C 30.167969 125.398438 26.625 125.824219 22.148438 125.824219 C 20.300781 125.824219 18.457031 125.757812 16.648438 125.613281 C 15.164062 125.488281 13.8125 126.460938 13.4375 127.902344 C 13.0625 129.34375 13.765625 130.84375 15.117188 131.464844 C 25.328125 136.183594 36.542969 138.765625 48.449219 139.125 C 48.484375 139.125 48.515625 139.125 48.546875 139.125 C 54.929688 139.125 61.3125 138.425781 67.523438 137.046875 C 78.914062 134.519531 89.96875 129.65625 100.398438 122.613281 L 100.40625 122.613281 C 100.636719 122.523438 100.855469 122.402344 101.058594 122.269531 C 115.902344 112.027344 126.820312 97.691406 133.511719 79.664062 C 133.535156 79.605469 133.554688 79.546875 133.578125 79.476562 C 136.277344 70.453125 137.214844 62.292969 136.363281 55.226562 C 141.636719 53.523438 145.761719 51.078125 148.625 47.941406 C 149.558594 46.929688 149.699219 45.421875 148.972656 44.242188 Z M 148.972656 44.242188 "/>
</g>
</g>
</svg>
