<?xml version="1.0" encoding="UTF-8"?>
<svg xmlns="http://www.w3.org/2000/svg" xmlns:xlink="http://www.w3.org/1999/xlink" width="150pt" height="149.999998pt" viewBox="0 0 150 149.999998" version="1.2">
<g id="surface1">
<path style=" stroke:none;fill-rule:nonzero;fill:rgb(95.289612%,94.898987%,94.509888%);fill-opacity:1;" d="M 146.863281 31.394531 C 145.140625 24.945312 140.054688 19.859375 133.605469 18.136719 C 121.90625 15 75 15 75 15 C 75 15 28.09375 15 16.394531 18.136719 C 9.945312 19.859375 4.859375 24.945312 3.136719 31.394531 C 0 43.09375 0 75 0 75 C 0 75 0 106.90625 3.136719 118.605469 C 4.859375 125.054688 9.945312 130.140625 16.394531 131.863281 C 28.09375 135 75 135 75 135 C 75 135 121.90625 135 133.605469 131.863281 C 140.0625 130.140625 145.140625 125.054688 146.863281 118.605469 C 150 106.90625 150 75 150 75 C 150 75 150 43.09375 146.863281 31.394531 Z M 60 94.484375 L 60 55.515625 C 60 52.628906 63.128906 50.828125 65.625 52.265625 L 99.375 71.753906 C 101.871094 73.191406 101.871094 76.808594 99.375 78.246094 L 65.625 97.734375 C 63.128906 99.179688 60 97.371094 60 94.484375 Z M 60 94.484375 "/>
</g>
</svg>
